<!-- Generated by IcoMoon.io -->
<svg version="1.1" xmlns="http://www.w3.org/2000/svg" width="512" height="512" viewBox="0 0 512 512">
<title></title>
<g id="icomoon-ignore">
</g>
<path d="M512 405.334h-512c5.498-48.81 22.335-92.819 47.8-130.521l-0.654 1.027c20.176-30.86 46.339-56.137 77.014-74.707l9.813-5.506-43.094-72.746c-0.993-1.609-1.582-3.561-1.582-5.649 0-3.911 2.064-7.34 5.162-9.257l0.046-0.027c1.563-0.949 3.452-1.51 5.472-1.51 3.934 0 7.371 2.13 9.221 5.3l0.028 0.050 44.373 74.666c29.579-12.161 63.916-19.221 99.9-19.221 1.179 0 2.356 0.007 3.531 0.023l-0.178-0.002c0.944-0.012 2.059-0.019 3.175-0.019 35.387 0 69.125 7.063 99.88 19.855l-1.723-0.635 44.16-74.666c1.884-3.186 5.303-5.29 9.212-5.29 2.123 0 4.101 0.62 5.763 1.689l-0.043-0.025c3.057 1.96 5.053 5.341 5.053 9.189 0 2.128-0.611 4.113-1.667 5.79l0.026-0.045-43.094 72.96 10.666 5.974c31.554 19.853 57.509 45.741 76.853 76.236l0.587 0.991c23.419 35.945 39.8 78.601 46.112 124.469l0.182 1.611zM352 309.76c0 11.782 9.551 21.334 21.334 21.334v0c11.782 0 21.334-9.551 21.334-21.334v0c0-11.782-9.551-21.334-21.334-21.334v0c-11.782 0-21.334 9.551-21.334 21.334v0zM117.334 309.76c0 11.782 9.552 21.334 21.334 21.334v0c11.782 0 21.333-9.551 21.333-21.334v0c0-11.782-9.552-21.334-21.334-21.334v0c-11.782 0-21.334 9.551-21.334 21.334v0z"></path>
</svg>
